<?xml version="1.0" encoding="UTF-8"?>
<svg version="1.1" xmlns="http://www.w3.org/2000/svg" width="500" height="500">
<path d="M0 0 C2.52226953 1.82550999 4.79261506 3.80681046 7 6 C7.40089844 5.60167969 7.80179687 5.20335937 8.21484375 4.79296875 C13.92137278 -0.52536103 19.66740579 -3.04750477 27.5 -3.375 C34.43852553 -3.10813363 41.09017385 -1.0501069 46 4 C49.78788608 9.41126583 51.00851236 14.51619264 52 21 C52.37511719 20.19175781 52.75023437 19.38351562 53.13671875 18.55078125 C57.70996082 9.00111455 62.83834969 2.18583533 72.94140625 -1.7578125 C81.70620589 -4.27215906 90.65609326 -3.61887936 99 0 C107.40124157 4.72293965 111.0142021 11.04260629 114 20 C114 24.29 114 28.58 114 33 C99.15 33 84.3 33 69 33 C71.35937203 40.26412595 71.35937203 40.26412595 76 45 C80.06248957 46.35416319 83.75222604 46.54273091 88 46 C92.27403857 43.77561281 92.27403857 43.77561281 95 40 C100.61 40 106.22 40 112 40 C110.37326054 48.13369732 105.74459912 53.38711355 99 58 C89.93176067 62.27094522 79.73966129 62.24626282 70.34765625 59.03125 C62.75006185 55.69387076 57.83367531 50.29592188 54 43 C53.505 41.02 53.505 41.02 53 39 C52.67 45.6 52.34 52.2 52 59 C46.39 59 40.78 59 35 59 C34.96261719 56.25429688 34.92523438 53.50859375 34.88671875 50.6796875 C34.84045443 48.00870988 34.78923866 45.33786967 34.73754883 42.66699219 C34.70437704 40.81649181 34.67632113 38.96589214 34.65356445 37.11523438 C34.6198755 34.44878997 34.5675534 31.7832491 34.51171875 29.1171875 C34.50532883 28.29507782 34.4989389 27.47296814 34.49235535 26.62594604 C34.36768082 21.71083299 33.71285343 18.26016629 31 14 C27.41457279 11.64386212 24.03995078 11.72764016 19.9296875 12.40234375 C16.58098728 13.43949179 15.04844127 15.22857946 13 18 C11.23441548 23.05960294 10.67274888 27.80338579 10.5859375 33.12109375 C10.56657135 33.86585464 10.5472052 34.61061554 10.5272522 35.37794495 C10.46799844 37.73101749 10.42129086 40.08414043 10.375 42.4375 C10.33677015 44.04363983 10.29771558 45.64976025 10.2578125 47.25585938 C10.16080625 51.17046558 10.08081156 55.08489281 10 59 C4.72 59 -0.56 59 -6 59 C-6.03738281 56.41027344 -6.07476562 53.82054687 -6.11328125 51.15234375 C-6.15957486 48.62695164 -6.21077988 46.10170315 -6.26245117 43.57641602 C-6.29557767 41.82976101 -6.32364737 40.08300212 -6.34643555 38.33618164 C-6.38020881 35.8161213 -6.43253347 33.29700248 -6.48828125 30.77734375 C-6.49467117 30.00414291 -6.5010611 29.23094208 -6.50764465 28.43431091 C-6.64578793 23.2681881 -7.60105916 19.5989736 -10 15 C-12.30158311 12.89569544 -13.79577373 12.05618094 -16.92578125 11.91015625 C-21.6762765 12.25906268 -24.65142101 13.45444577 -28 17 C-30.30793816 21.38732223 -30.34256246 25.73215266 -30.4140625 30.58203125 C-30.43342865 31.39621017 -30.4527948 32.2103891 -30.4727478 33.04924011 C-30.53228752 35.63688852 -30.57882583 38.22458203 -30.625 40.8125 C-30.6632034 42.57228449 -30.7022565 44.33205074 -30.7421875 46.09179688 C-30.83955976 50.3944337 -30.91932992 54.69688818 -31 59 C-36.61 59 -42.22 59 -48 59 C-48 39.2 -48 19.4 -48 -1 C-43.05 -1 -38.1 -1 -33 -1 C-32.34 0.65 -31.68 2.3 -31 4 C-30.34 3.401875 -29.68 2.80375 -29 2.1875 C-20.12120499 -4.28662136 -9.85714019 -4.88384623 0 0 Z M72 15 C69.64082559 18.74255086 69.64082559 18.74255086 69 23 C78.24 23 87.48 23 97 23 C95.96700133 16.80200795 95.54430209 15.78691841 91 12 C83.84766474 9.61588825 77.9701124 10.46271458 72 15 Z " fill="#F64D4E" transform="translate(289,243)"/>
<path d="M0 0 C15.87313509 11.50903784 31.50065454 27.9955216 35.0546875 48.02734375 C35.77570449 56.96795448 33.63298492 65.16102012 27.93359375 72.203125 C22.41143376 77.56455684 15.99926153 80.96160085 8.3046875 81.08984375 C7.2321875 81.06921875 6.1596875 81.04859375 5.0546875 81.02734375 C5.00570312 81.59582031 4.95671875 82.16429687 4.90625 82.75 C4.42325669 87.73815504 3.57830587 92.25333953 2.0546875 97.02734375 C-2.09629538 96.59039818 -6.22712408 96.13511315 -10.35546875 95.515625 C-24.10011549 93.47777517 -36.53843647 93.63752968 -50.15698242 96.04760742 C-51.37091675 96.256073 -51.37091675 96.256073 -52.609375 96.46875 C-53.32561035 96.59967041 -54.0418457 96.73059082 -54.77978516 96.86547852 C-56.9453125 97.02734375 -56.9453125 97.02734375 -61.9453125 96.02734375 C-62.9353125 90.41734375 -63.9253125 84.80734375 -64.9453125 79.02734375 C-65.9353125 79.52234375 -65.9353125 79.52234375 -66.9453125 80.02734375 C-75.21789981 80.71672603 -82.37939442 78.72033862 -88.8203125 73.40234375 C-94.36057935 68.05784605 -97.37800073 61.75471406 -97.97265625 54.0546875 C-97.86637803 46.17491683 -95.09983127 39.94716225 -89.9453125 34.02734375 C-85.94179259 30.27744048 -81.5112341 28.16831878 -76.3515625 26.4453125 C-66.3906087 23.47502666 -66.3906087 23.47502666 -59.62890625 16.23828125 C-58.58138932 13.47870756 -57.8028976 10.66970877 -57.0390625 7.8203125 C-55.2209403 1.51532443 -51.94780652 -2.13496285 -46.41796875 -5.51953125 C-30.44463839 -13.86975975 -14.42489226 -9.66123421 0 0 Z M-48.9453125 5.02734375 C-51.19983574 8.83185172 -52.77259888 12.58570377 -54.3828125 16.703125 C-54.640625 17.36199707 -54.8984375 18.02086914 -55.1640625 18.69970703 C-55.67428979 20.01577456 -56.17475537 21.33567999 -56.6640625 22.65966797 C-58.73439869 28.07320328 -60.9733693 31.86027532 -66.0078125 34.83984375 C-68.9453125 36.02734375 -68.9453125 36.02734375 -71.9453125 36.02734375 C-69.9653125 34.37734375 -67.9853125 32.72734375 -65.9453125 31.02734375 C-70.56084876 29.48883166 -73.60684154 31.61207476 -77.92578125 33.5078125 C-83.30811516 36.21638674 -86.75141992 39.0631979 -89.8828125 44.21484375 C-91.59414521 50.35550817 -92.39912383 56.97623854 -89.3828125 62.83984375 C-86.31365749 67.38876993 -82.16726195 71.28669393 -76.9453125 73.02734375 C-75.05060434 73.09589325 -73.1536291 73.11214747 -71.2578125 73.08984375 C-70.26394531 73.08082031 -69.27007812 73.07179688 -68.24609375 73.0625 C-67.48683594 73.05089844 -66.72757813 73.03929687 -65.9453125 73.02734375 C-66.55734536 68.92589714 -66.55734536 68.92589714 -69.2578125 65.77734375 C-72.68957066 62.26577726 -74.18119123 58.55098431 -75.9453125 54.02734375 C-75.2853125 54.02734375 -74.6253125 54.02734375 -73.9453125 54.02734375 C-73.7390625 54.58421875 -73.5328125 55.14109375 -73.3203125 55.71484375 C-70.89002257 59.80214955 -67.43145604 62.53196257 -62.9453125 64.02734375 C-57.35347695 64.62367586 -52.49668328 64.63011602 -47.64453125 61.41796875 C-44.93192012 59.19799274 -42.53766338 56.69543014 -40.1015625 54.1796875 C-30.91773021 45.01249259 -21.11761731 38.67516202 -7.9453125 38.02734375 C-8.70714844 38.37925781 -9.46898437 38.73117188 -10.25390625 39.09375 C-16.94423869 42.29274791 -23.74638744 45.60523251 -28.9453125 51.02734375 C-28.9453125 52.01734375 -28.9453125 53.00734375 -28.9453125 54.02734375 C-28.35105469 54.18589844 -27.75679687 54.34445313 -27.14453125 54.5078125 C-22.33047894 55.86293453 -17.84566944 57.45058411 -13.3203125 59.58984375 C-5.79590074 63.08784978 0.78546281 65.04774769 9.0546875 63.02734375 C13.4580261 61.31276943 17.41685246 59.05887295 21.0546875 56.02734375 C17.7754636 61.45067558 14.29471067 65.94733603 8.0546875 68.02734375 C7.7246875 70.33734375 7.3946875 72.64734375 7.0546875 75.02734375 C15.49051078 72.55283559 21.48796924 69.97681628 26.0546875 62.02734375 C28.87005626 53.58123746 27.43444359 44.89063113 23.71875 36.9921875 C13.93624159 19.56278871 -2.72137882 3.14797268 -22.2578125 -2.66015625 C-32.82662437 -3.88908786 -41.21857591 -2.87500049 -48.9453125 5.02734375 Z M-45.31445312 67.84936523 C-47.96636977 69.76485892 -50.6896461 69.9777321 -53.8828125 70.33984375 C-55.02621094 70.48035156 -56.16960937 70.62085938 -57.34765625 70.765625 C-58.20488281 70.85199219 -59.06210938 70.93835938 -59.9453125 71.02734375 C-59.66163382 73.25754102 -59.36803862 75.48647829 -59.0703125 77.71484375 C-58.82667969 79.57689453 -58.82667969 79.57689453 -58.578125 81.4765625 C-58.02052881 84.6052967 -57.25523127 87.14882477 -55.9453125 90.02734375 C-54.93855469 89.88296875 -53.93179688 89.73859375 -52.89453125 89.58984375 C-36.01205637 87.3046918 -19.79226574 87.61139143 -2.9453125 90.02734375 C-1.31655251 85.57904965 -0.44005528 81.34468197 0.1796875 76.65234375 C0.34726563 75.40710938 0.51484375 74.161875 0.6875 72.87890625 C0.86925781 71.46738281 0.86925781 71.46738281 1.0546875 70.02734375 C0.02021484 69.88039063 0.02021484 69.88039063 -1.03515625 69.73046875 C-1.97488281 69.5809375 -2.91460937 69.43140625 -3.8828125 69.27734375 C-4.79933594 69.138125 -5.71585938 68.99890625 -6.66015625 68.85546875 C-9.50813507 68.13754781 -11.56134039 67.27369436 -14.16015625 65.984375 C-19.32145009 63.61172698 -23.95215874 63.39603351 -29.5703125 63.46484375 C-30.47265625 63.44099609 -31.375 63.41714844 -32.3046875 63.39257812 C-37.95476628 63.40493252 -40.97265904 64.25662034 -45.31445312 67.84936523 Z " fill="#ED4E4F" transform="translate(223.9453125,143.97265625)"/>
<path d="M0 0 C6.65561793 4.46610624 11.27419852 11.12352947 13.77734375 18.71484375 C13.77734375 20.36484375 13.77734375 22.01484375 13.77734375 23.71484375 C7.83734375 23.71484375 1.89734375 23.71484375 -4.22265625 23.71484375 C-5.54265625 21.07484375 -6.86265625 18.43484375 -8.22265625 15.71484375 C-11.37919064 12.12447288 -14.88750345 10.89068555 -19.57421875 10.2734375 C-26.54244581 10.04215802 -32.5975711 10.30488621 -38.22265625 14.71484375 C-44.99937407 21.49156157 -47.13429044 29.07521677 -47.47265625 38.40234375 C-47.34738831 46.7326617 -45.42576898 54.57177642 -40.0078125 61.0546875 C-35.25517908 65.47453259 -30.05459411 66.9309297 -23.66015625 67.15234375 C-17.45463843 66.89160771 -12.38735375 65.87954125 -7.84765625 61.33984375 C-5.94133588 58.42945081 -5.94133588 58.42945081 -4.22265625 53.71484375 C1.71734375 53.71484375 7.65734375 53.71484375 13.77734375 53.71484375 C12.56735017 63.39479238 9.99438178 69.42634716 2.40234375 75.65234375 C-8.01074928 83.09026734 -20.41496116 83.86611851 -32.8515625 82.40625 C-42.20009513 80.56906011 -49.98288418 75.9274835 -56.22265625 68.71484375 C-64.72140132 55.5789507 -66.4778907 42.0899458 -64.22265625 26.71484375 C-61.60872932 15.14855568 -55.87289246 6.61537563 -46.22265625 -0.28515625 C-32.18830703 -7.91503309 -13.82955056 -7.99634822 0 0 Z " fill="#F64D4E" transform="translate(130.22265625,221.28515625)"/>
<path d="M0 0 C5.97674139 4.65496205 9.92211307 12.53575581 11.1875 19.875 C12.06562026 31.09897348 10.49952206 40.14815234 3.140625 48.8984375 C-3.46456853 55.58289335 -10.92856608 57.84504339 -20.125 58.25 C-29.68398849 58.01201688 -37.06642419 54.61587054 -43.93359375 48.03125 C-51.10432416 39.80205419 -51.47548925 30.26455222 -50.98730469 19.81933594 C-50.26885072 11.82804073 -45.82336217 4.9978939 -39.8125 -0.125 C-26.80151108 -8.29752742 -13.09855192 -8.1072535 0 0 Z M-30.8125 12.875 C-34.67006821 18.72786211 -35.38133678 24.80968983 -34.125 31.5625 C-32.90501492 36.19525379 -31.32441038 39.39576389 -27.0546875 41.91015625 C-22.73496056 43.86673845 -19.2556964 44.3054107 -14.70703125 42.87890625 C-10.26233271 40.52367424 -7.37677316 36.56781949 -5.8125 31.875 C-5.08514156 22.36071714 -5.08514156 22.36071714 -8.8125 13.875 C-11.5776058 10.77268618 -13.13292524 9.18906682 -17.21484375 8.42578125 C-22.84640418 8.1801944 -26.54971657 8.92412756 -30.8125 12.875 Z " fill="#F54D4E" transform="translate(211.8125,246.125)"/>
<path d="M0 0 C0 5.61 0 11.22 0 17 C-2.371875 17.37125 -4.74375 17.7425 -7.1875 18.125 C-13.47649397 19.18121141 -13.47649397 19.18121141 -18.375 23 C-20.86399004 27.59505854 -21.1954786 31.40073104 -21.31640625 36.51171875 C-21.33718735 37.23994339 -21.35796844 37.96816803 -21.37937927 38.71846008 C-21.44468746 41.04137875 -21.50367237 43.36440906 -21.5625 45.6875 C-21.60570305 47.26368335 -21.64931792 48.83985548 -21.69335938 50.41601562 C-21.80112368 54.27723104 -21.90033556 58.138533 -22 62 C-27.28 62 -32.56 62 -38 62 C-38 42.2 -38 22.4 -38 2 C-33.38 2 -28.76 2 -24 2 C-22.03177114 3.96822886 -22.33751619 7.34808709 -22 10 C-21.52691406 9.52949219 -21.05382812 9.05898437 -20.56640625 8.57421875 C-14.18721345 2.56807816 -8.80638148 0 0 0 Z " fill="#F64D4E" transform="translate(442,240)"/>
<path d="M0 0 C4.95 0 9.9 0 15 0 C15.66 1.65 16.32 3.3 17 5 C18.65 3.68 20.3 2.36 22 1 C22.66 1.33 23.32 1.66 24 2 C22.06745228 4.0245738 20.36841312 5.42105792 18 7 C15.8125 6.625 15.8125 6.625 14 6 C14 4.35 14 2.7 14 1 C10.04 1 6.08 1 2 1 C2 20.14 2 39.28 2 59 C2.99 59.33 3.98 59.66 5 60 C3.35 60 1.7 60 0 60 C0 40.2 0 20.4 0 0 Z " fill="#D85154" transform="translate(241,242)"/>
<path d="M0 0 C-2.37574714 2.37574714 -4.64360172 3.32925952 -7.6875 4.75 C-12.9046022 7.29278931 -16.73748637 10.10813973 -21 14 C-21.66 14 -22.32 14 -23 14 C-23 14.99 -23 15.98 -23 17 C-25.64 16.67 -28.28 16.34 -31 16 C-31.66 17.32 -32.32 18.64 -33 20 C-34.32 19.67 -35.64 19.34 -37 19 C-26.39001645 8.26846181 -15.85458068 -0.30489578 0 0 Z " fill="#EA4D4F" transform="translate(218,181)"/>
<path d="M0 0 C15.51 0 31.02 0 47 0 C47 0.99 47 1.98 47 3 C31.49 3 15.98 3 0 3 C0 2.01 0 1.02 0 0 Z " fill="#D84B4D" transform="translate(399,326)"/>
<path d="M0 0 C1.65 0 3.3 0 5 0 C6.55647905 3.1129581 6.18446048 6.39911833 6.1875 9.8125 C6.19974609 10.52470703 6.21199219 11.23691406 6.22460938 11.97070312 C6.23607389 16.1017489 5.84522492 19.28767002 4 23 C3.34 23 2.68 23 2 23 C2 23.66 2 24.32 2 25 C0.68 25.33 -0.64 25.66 -2 26 C-1.525625 24.783125 -1.05125 23.56625 -0.5625 22.3125 C1.46545278 16.32429981 1.71868388 10.27625974 2 4 C1.34 4 0.68 4 0 4 C0 2.68 0 1.36 0 0 Z " fill="#FA4C4C" transform="translate(251,186)"/>
<path d="M0 0 C0.33 0 0.66 0 1 0 C1.16873478 1.43725871 1.33490737 2.87481838 1.5 4.3125 C1.5928125 5.11300781 1.685625 5.91351563 1.78125 6.73828125 C2.08621996 9.89145284 2.01243199 11.96270403 1 15 C1.57524414 14.83701416 2.15048828 14.67402832 2.74316406 14.50610352 C4.95708107 14.00962472 6.84673797 13.88520256 9.109375 13.90234375 C9.86347656 13.90556641 10.61757812 13.90878906 11.39453125 13.91210938 C12.17183594 13.92048828 12.94914062 13.92886719 13.75 13.9375 C14.54277344 13.94201172 15.33554688 13.94652344 16.15234375 13.95117188 C18.10159508 13.96291435 20.05080738 13.98084854 22 14 C22 14.33 22 14.66 22 15 C18.773025 15.5350634 15.54320875 16.05050533 12.3125 16.5625 C11.40048828 16.71396484 10.48847656 16.86542969 9.54882812 17.02148438 C8.66259766 17.16005859 7.77636719 17.29863281 6.86328125 17.44140625 C5.64572144 17.63778687 5.64572144 17.63778687 4.40356445 17.83813477 C2 18 2 18 -3 17 C-3.99 11.72 -4.98 6.44 -6 1 C-5.34 1 -4.68 1 -4 1 C-2.79371992 3.33214148 -1.8345262 5.49642139 -1 8 C-0.67 5.36 -0.34 2.72 0 0 Z " fill="#E44F51" transform="translate(165,223)"/>
<path d="M0 0 C5.77807024 -0.2358396 10.51324804 0.13216954 16 2 C16 2.66 16 3.32 16 4 C16.99 4.33 17.98 4.66 19 5 C18.67 5.99 18.34 6.98 18 8 C16.20793453 7.85915204 14.41635083 7.71216299 12.625 7.5625 C11.62726563 7.48128906 10.62953125 7.40007812 9.6015625 7.31640625 C7 7 7 7 5 6 C5 5.34 5 4.68 5 4 C3.35 4 1.7 4 0 4 C0 2.68 0 1.36 0 0 Z " fill="#F74C4D" transform="translate(192,135)"/>
<path d="M0 0 C4 1 4 1 5.25 3.0625 C5.4975 3.701875 5.745 4.34125 6 5 C6.66 3.35 7.32 1.7 8 0 C8.99 0 9.98 0 11 0 C11 3.63 11 7.26 11 11 C10.34 11 9.68 11 9 11 C8.67 10.34 8.34 9.68 8 9 C7.67 9.66 7.34 10.32 7 11 C6.01 11 5.02 11 4 11 C3.67 10.01 3.34 9.02 3 8 C2.67 8.99 2.34 9.98 2 11 C1.34 11 0.68 11 0 11 C0 7.37 0 3.74 0 0 Z " fill="#E25454" transform="translate(369,322)"/>
<path d="M0 0 C0.99 0 1.98 0 3 0 C3.66 1.65 4.32 3.3 5 5 C5.433125 4.175 5.86625 3.35 6.3125 2.5 C6.869375 1.675 7.42625 0.85 8 0 C8.99 0 9.98 0 11 0 C11 3.63 11 7.26 11 11 C10.34 11 9.68 11 9 11 C8.67 10.01 8.34 9.02 8 8 C7.67 8.99 7.34 9.98 7 11 C6.01 11 5.02 11 4 11 C3.67 10.34 3.34 9.68 3 9 C2.67 9.66 2.34 10.32 2 11 C1.34 11 0.68 11 0 11 C0 7.37 0 3.74 0 0 Z " fill="#E25557" transform="translate(323,322)"/>
<path d="M0 0 C0.66 0 1.32 0 2 0 C3.53317812 1.6815502 4.88441433 3.46870071 6.26953125 5.2734375 C9.22343181 8.22067011 11.9994924 8.9372329 16.11328125 9.1953125 C17.16902344 9.17210937 18.22476563 9.14890625 19.3125 9.125 C20.38113281 9.10695312 21.44976562 9.08890625 22.55078125 9.0703125 C23.76314453 9.03550781 23.76314453 9.03550781 25 9 C24.67 9.66 24.34 10.32 24 11 C20.83984375 11.4140625 20.83984375 11.4140625 16.9375 11.625 C15.64714844 11.69976562 14.35679687 11.77453125 13.02734375 11.8515625 C12.02832031 11.90054688 11.02929688 11.94953125 10 12 C10.33 12.66 10.66 13.32 11 14 C11.039992 15.99960012 11.04346799 18.00047242 11 20 C10.34 19.67 9.68 19.34 9 19 C8.896875 18.2575 8.79375 17.515 8.6875 16.75 C8.19829524 13.7909861 8.19829524 13.7909861 5.625 11.625 C2.48599663 8.48599663 1.48535551 6.14336012 0 2 C0 1.34 0 0.68 0 0 Z " fill="#E54E52" transform="translate(148,198)"/>
<path d="M0 0 C0.75 3.25 0.75 3.25 1 7 C-0.625 9.5 -0.625 9.5 -3 11 C-5.625 10.9375 -5.625 10.9375 -8 10 C-10 7 -10 7 -9.875 3.4375 C-9 0 -9 0 -7.25 -1.5625 C-4.28055061 -2.13989294 -2.66188919 -1.33094459 0 0 Z M-6 1 C-6.66 2.32 -7.32 3.64 -8 5 C-7.01 6.485 -7.01 6.485 -6 8 C-4.68 7.67 -3.36 7.34 -2 7 C-2 5.35 -2 3.7 -2 2 C-3.32 1.67 -4.64 1.34 -6 1 Z " fill="#D35251" transform="translate(163,323)"/>
<path d="M0 0 C4.07699093 4.07699093 5.14357327 11.40411646 5.375 17.0625 C4.58488595 25.35869751 2.21259604 31.5194752 -3 38 C-4.125 34.25 -4.125 34.25 -3 32 C-2.34 32 -1.68 32 -1 32 C-1 31.34 -1 30.68 -1 30 C-0.34 30 0.32 30 1 30 C2.23402862 25.22907044 2.11265112 20.57530554 2.0625 15.6875 C2.05798828 14.85154297 2.05347656 14.01558594 2.04882812 13.15429688 C2.03710548 11.10283351 2.01917203 9.05140727 2 7 C0.35 7 -1.3 7 -3 7 C-3.33 8.32 -3.66 9.64 -4 11 C-4.33 9.02 -4.66 7.04 -5 5 C-2.03 5.495 -2.03 5.495 1 6 C0.67 4.02 0.34 2.04 0 0 Z " fill="#DB5152" transform="translate(254,179)"/>
<path d="M0 0 C2.31 0 4.62 0 7 0 C8.62950412 4.12168689 9.26264601 6.70700357 8 11 C5.36 11 2.72 11 0 11 C0 7.37 0 3.74 0 0 Z M2 2 C2 2.66 2 3.32 2 4 C3.32 4 4.64 4 6 4 C6 3.34 6 2.68 6 2 C4.68 2 3.36 2 2 2 Z M3 6 C2.67 6.99 2.34 7.98 2 9 C3.32 9 4.64 9 6 9 C5.67 8.01 5.34 7.02 5 6 C4.34 6 3.68 6 3 6 Z " fill="#DA5858" transform="translate(221,322)"/>
<path d="M0 0 C2.64 0 5.28 0 8 0 C9.77084117 2.70834531 10.01052504 3.89264459 9.6875 7.1875 C9 10 9 10 8 11 C5.32941149 11.14115161 2.67567762 11.04247107 0 11 C0 7.37 0 3.74 0 0 Z M2 2 C2 4.31 2 6.62 2 9 C3.65 8.67 5.3 8.34 7 8 C7 6.35 7 4.7 7 3 C5.35 2.67 3.7 2.34 2 2 Z " fill="#DC5456" transform="translate(187,322)"/>
<path d="M0 0 C5.94 0 11.88 0 18 0 C18 1.65 18 3.3 18 5 C17.67 4.01 17.34 3.02 17 2 C11.72 2 6.44 2 1 2 C0.01 5.3 -0.98 8.6 -2 12 C-3.98 12 -5.96 12 -8 12 C-7.59007813 11.55269531 -7.18015625 11.10539062 -6.7578125 10.64453125 C-6.21898438 10.03996094 -5.68015625 9.43539063 -5.125 8.8125 C-4.32449219 7.92498047 -4.32449219 7.92498047 -3.5078125 7.01953125 C-1.61904659 4.67082069 -1.61904659 4.67082069 0 0 Z " fill="#D95252" transform="translate(126,275)"/>
<path d="M0 0 C2.33294775 -0.04241723 4.66702567 -0.04092937 7 0 C8 1 8 1 8.0625 3.375 C8.041875 4.24125 8.02125 5.1075 8 6 C8 6.99 8 7.98 8 9 C8 9.66 8 10.32 8 11 C5 11 5 11 3.3125 9.5 C2.879375 9.005 2.44625 8.51 2 8 C2 8.99 2 9.98 2 11 C1.34 11 0.68 11 0 11 C0 7.37 0 3.74 0 0 Z M2 2 C2 2.99 2 3.98 2 5 C3.32 4.67 4.64 4.34 6 4 C5.67 3.34 5.34 2.68 5 2 C4.01 2 3.02 2 2 2 Z " fill="#DD5356" transform="translate(292,322)"/>
<path d="M0 0 C2.64 0 5.28 0 8 0 C8 0.66 8 1.32 8 2 C6.35 2 4.7 2 3 2 C3 2.66 3 3.32 3 4 C4.32 4 5.64 4 7 4 C7 4.99 7 5.98 7 7 C5.68 7 4.36 7 3 7 C3 7.66 3 8.32 3 9 C4.65 9 6.3 9 8 9 C8 9.66 8 10.32 8 11 C5.36 11 2.72 11 0 11 C0 7.37 0 3.74 0 0 Z " fill="#D25255" transform="translate(251,322)"/>
<path d="M0 0 C2.31 0 4.62 0 7 0 C8.59671264 2.53595537 9.06525738 3.60845574 8.5625 6.625 C8.376875 7.40875 8.19125 8.1925 8 9 C8.33 9.66 8.66 10.32 9 11 C6.83125748 10.49396008 5.00032373 10.00016187 3 9 C2.67 9.66 2.34 10.32 2 11 C1.34 11 0.68 11 0 11 C0 7.37 0 3.74 0 0 Z M2 2 C2 2.99 2 3.98 2 5 C3.32 5 4.64 5 6 5 C6 4.01 6 3.02 6 2 C4.68 2 3.36 2 2 2 Z " fill="#DD5150" transform="translate(171,322)"/>
<path d="M0 0 C2.64 0 5.28 0 8 0 C8.33 1.98 8.66 3.96 9 6 C6 8 6 8 3 8 C3 8.99 3 9.98 3 11 C2.01 11 1.02 11 0 11 C0 7.37 0 3.74 0 0 Z M3 2 C3 3.32 3 4.64 3 6 C3.99 5.67 4.98 5.34 6 5 C6 4.01 6 3.02 6 2 C5.01 2 4.02 2 3 2 Z " fill="#D54D4E" transform="translate(276,322)"/>
<path d="M0 0 C0.99 0 1.98 0 3 0 C4.32 3.63 5.64 7.26 7 11 C6.01 11 5.02 11 4 11 C3.67 10.34 3.34 9.68 3 9 C2.01 9 1.02 9 0 9 C-0.33 9.66 -0.66 10.32 -1 11 C-1.99 10.67 -2.98 10.34 -4 10 C-2.68 6.7 -1.36 3.4 0 0 Z M1 4 C2 6 2 6 2 6 Z " fill="#DC5150" transform="translate(207,322)"/>
<path d="M0 0 C0.99 0 1.98 0 3 0 C4.32 3.63 5.64 7.26 7 11 C6.01 11 5.02 11 4 11 C3.67 10.34 3.34 9.68 3 9 C2.01 9 1.02 9 0 9 C-0.33 9.66 -0.66 10.32 -1 11 C-1.99 10.67 -2.98 10.34 -4 10 C-2.68 6.7 -1.36 3.4 0 0 Z M1 4 C2 6 2 6 2 6 Z " fill="#DA5454" transform="translate(111,322)"/>
<path d="M0 0 C0.66 0 1.32 0 2 0 C2.33 2.64 2.66 5.28 3 8 C3.99 8 4.98 8 6 8 C6.33 5.36 6.66 2.72 7 0 C7.66 0 8.32 0 9 0 C9.08090971 1.62418745 9.13914995 3.24951745 9.1875 4.875 C9.22230469 5.77992188 9.25710938 6.68484375 9.29296875 7.6171875 C9.19628906 8.40351563 9.09960938 9.18984375 9 10 C6 12 6 12 3.375 11.6875 C1 11 1 11 0 10 C-0.07205511 8.31391034 -0.08386068 6.62499341 -0.0625 4.9375 C-0.05347656 4.01839844 -0.04445313 3.09929687 -0.03515625 2.15234375 C-0.02355469 1.44207031 -0.01195312 0.73179687 0 0 Z " fill="#D65D5D" transform="translate(352,322)"/>
<path d="M0 0 C0.99 0 1.98 0 3 0 C1.17053616 5.33593619 -1.17212095 8.85757559 -6 11.875 C-9.17512324 13.06567122 -9.92574371 12.96733064 -13 12 C-12.51789063 11.66226563 -12.03578125 11.32453125 -11.5390625 10.9765625 C-10.90742188 10.53054687 -10.27578125 10.08453125 -9.625 9.625 C-8.99851563 9.18414062 -8.37203125 8.74328125 -7.7265625 8.2890625 C-5.87619491 6.97191134 -5.87619491 6.97191134 -4 5 C-3.01 4.67 -2.02 4.34 -1 4 C-0.26676204 1.98491642 -0.26676204 1.98491642 0 0 Z " fill="#E54D52" transform="translate(164,168)"/>
<path d="M0 0 C0.33 0 0.66 0 1 0 C1.66 2.97 2.32 5.94 3 9 C3.66 9 4.32 9 5 9 C4.67 11.64 4.34 14.28 4 17 C3.67 17 3.34 17 3 17 C3 15.02 3 13.04 3 11 C1.68 11.33 0.36 11.66 -1 12 C-1 13.98 -1 15.96 -1 18 C-4.37817425 18.84454356 -6.67465243 19.10844919 -10 18 C-10 17.34 -10 16.68 -10 16 C-7.69 16 -5.38 16 -3 16 C-2.01 10.72 -1.02 5.44 0 0 Z " fill="#DF5051" transform="translate(224,217)"/>
<path d="M0 0 C5.94 0 11.88 0 18 0 C15.0337032 2.9662968 14.65691235 3.14672045 11 4 C10.67 4.66 10.34 5.32 10 6 C7.69 5.34 5.38 4.68 3 4 C3 3.34 3 2.68 3 2 C2.01 2 1.02 2 0 2 C0 1.34 0 0.68 0 0 Z " fill="#F44D4F" transform="translate(220,209)"/>
<path d="M0 0 C2.31 0 4.62 0 7 0 C7 0.66 7 1.32 7 2 C5.35 2 3.7 2 2 2 C2 2.66 2 3.32 2 4 C3.65 4.33 5.3 4.66 7 5 C6.67 5.66 6.34 6.32 6 7 C4.68 7 3.36 7 2 7 C2 7.66 2 8.32 2 9 C3.65 9 5.3 9 7 9 C7 9.66 7 10.32 7 11 C4.69 11 2.38 11 0 11 C0 7.37 0 3.74 0 0 Z " fill="#D55355" transform="translate(308,322)"/>
<path d="M0 0 C3.23356015 1.21258505 4.00856305 2.01284458 6 5 C5.67 5.66 5.34 6.32 5 7 C4.34 7 3.68 7 3 7 C2.34 8.32 1.68 9.64 1 11 C-0.5 9.9375 -0.5 9.9375 -2 8 C-2.1875 4.3125 -2.1875 4.3125 -2 1 C-1.34 0.67 -0.68 0.34 0 0 Z " fill="#F84B4C" transform="translate(227,216)"/>
<path d="M0 0 C0 0.66 0 1.32 0 2 C-2.97 2.66 -5.94 3.32 -9 4 C-9 4.99 -9 5.98 -9 7 C-10.98 7.33 -12.96 7.66 -15 8 C-15 9.65 -15 11.3 -15 13 C-16.98 13 -18.96 13 -21 13 C-16.19595055 6.3277091 -8.64251048 0 0 0 Z " fill="#E25156" transform="translate(96,217)"/>
<path d="M0 0 C2.64 0 5.28 0 8 0 C8 0.66 8 1.32 8 2 C6.02 2 4.04 2 2 2 C2 2.66 2 3.32 2 4 C3.65 4 5.3 4 7 4 C7 4.99 7 5.98 7 7 C5.35 7 3.7 7 2 7 C2 8.32 2 9.64 2 11 C1.34 11 0.68 11 0 11 C0 7.37 0 3.74 0 0 Z " fill="#D05251" transform="translate(139,322)"/>
<path d="M0 0 C2.31 0 4.62 0 7 0 C7 0.66 7 1.32 7 2 C5.35 2 3.7 2 2 2 C2 2.66 2 3.32 2 4 C3.65 4 5.3 4 7 4 C6.67 4.99 6.34 5.98 6 7 C4.68 7 3.36 7 2 7 C2 8.32 2 9.64 2 11 C1.34 11 0.68 11 0 11 C0 7.37 0 3.74 0 0 Z " fill="#D45455" transform="translate(125,322)"/>
<path d="M0 0 C0.99 0.33 1.98 0.66 3 1 C3 2.32 3 3.64 3 5 C2.01 5.33 1.02 5.66 0 6 C-0.33 6.99 -0.66 7.98 -1 9 C-2.62332967 10.38576923 -4.28724465 11.72641268 -6 13 C-6.35281338 8.8029908 -5.64185432 6.93477927 -3 3.6875 C-2.443125 2.99011719 -1.88625 2.29273438 -1.3125 1.57421875 C-0.6628125 0.79498047 -0.6628125 0.79498047 0 0 Z " fill="#F94949" transform="translate(164,163)"/>
<path d="M0 0 C0.33 0.99 0.66 1.98 1 3 C1.66 3 2.32 3 3 3 C3.33 4.32 3.66 5.64 4 7 C4.99 7 5.98 7 7 7 C7.33 8.32 7.66 9.64 8 11 C6.22611914 9.90073597 4.45600316 8.79539498 2.6875 7.6875 C1.20830078 6.76517578 1.20830078 6.76517578 -0.30078125 5.82421875 C-2.50172035 4.33675339 -4.23328988 2.9596614 -6 1 C-3.03 1.495 -3.03 1.495 0 2 C0 1.34 0 0.68 0 0 Z M7 6 C9 7 9 7 9 7 Z " fill="#E35053" transform="translate(219,145)"/>
<path d="M0 0 C0.66 0 1.32 0 2 0 C2.268125 0.61875 2.53625 1.2375 2.8125 1.875 C3.95556848 4.2995233 3.95556848 4.2995233 7 6 C6.67 7.32 6.34 8.64 6 10 C5.2575 9.0409375 5.2575 9.0409375 4.5 8.0625 C0.68526177 4.91534096 -3.09415061 5 -8 5 C-8 4.34 -8 3.68 -8 3 C-5.36 3 -2.72 3 0 3 C0 2.01 0 1.02 0 0 Z " fill="#E35354" transform="translate(316,250)"/>
<path d="M0 0 C-2.28459758 2.28459758 -4.12537344 2.97129748 -7.125 4.125 C-8.03507813 4.47820312 -8.94515625 4.83140625 -9.8828125 5.1953125 C-10.93082031 5.59363281 -10.93082031 5.59363281 -12 6 C-12 5.34 -12 4.68 -12 4 C-13.32 3.67 -14.64 3.34 -16 3 C-10.47239641 0.89424625 -5.93002267 -0.37851209 0 0 Z " fill="#D85050" transform="translate(218,181)"/>
<path d="M0 0 C6.75 1.75 6.75 1.75 9 4 C8.34 5.32 7.68 6.64 7 8 C5.68 7.67 4.36 7.34 3 7 C2.67 5.68 2.34 4.36 2 3 C1.01 3 0.02 3 -1 3 C-0.67 2.01 -0.34 1.02 0 0 Z " fill="#F94C4B" transform="translate(224,149)"/>
<path d="M0 0 C0.99 0 1.98 0 3 0 C3.309375 1.11375 3.61875 2.2275 3.9375 3.375 C4.82326483 6.7945155 4.82326483 6.7945155 6 9 C0.98886765 7.5682479 -0.94469549 5.01554307 -4 1 C-2.68 1.33 -1.36 1.66 0 2 C0 1.34 0 0.68 0 0 Z " fill="#E45353" transform="translate(171,291)"/>
<path d="M0 0 C0 0.66 0 1.32 0 2 C-4.68884659 5.00567089 -7.8228229 5.18808758 -13.14453125 4.51953125 C-13.75683594 4.34808594 -14.36914062 4.17664063 -15 4 C-15.33 3.34 -15.66 2.68 -16 2 C-13.70858188 1.66496236 -11.41685737 1.33201958 -9.125 1 C-7.21074219 0.7215625 -7.21074219 0.7215625 -5.2578125 0.4375 C-2 0 -2 0 0 0 Z " fill="#DF5256" transform="translate(118,287)"/>
<path d="M0 0 C1.9453125 -0.29296875 1.9453125 -0.29296875 4.125 -0.1875 C5.40375 -0.125625 6.6825 -0.06375 8 0 C5.38485683 2.12038635 2.80362384 4.13091744 0 6 C-3.1875 5.625 -3.1875 5.625 -6 5 C-5.38125 4.731875 -4.7625 4.46375 -4.125 4.1875 C-1.7004767 3.04443152 -1.7004767 3.04443152 0 0 Z " fill="#E34F51" transform="translate(148,217)"/>
<path d="M0 0 C2.97 0.33 5.94 0.66 9 1 C8.34 2.32 7.68 3.64 7 5 C4.69 4.67 2.38 4.34 0 4 C0 2.66666667 0 1.33333333 0 0 Z " fill="#F34C4B" transform="translate(210,205)"/>
<path d="M0 0 C3.96 0 7.92 0 12 0 C12 0.33 12 0.66 12 1 C9.36 1.33 6.72 1.66 4 2 C3.67 2.99 3.34 3.98 3 5 C4.65 5 6.3 5 8 5 C8 5.66 8 6.32 8 7 C3.52599758 7.36275695 3.52599758 7.36275695 1.1875 5.75 C0 4 0 4 0 0 Z " fill="#E25152" transform="translate(189,134)"/>
<path d="M0 0 C0.66 0 1.32 0 2 0 C2 2.97 2 5.94 2 9 C3.65 9 5.3 9 7 9 C7 9.66 7 10.32 7 11 C4.69 11 2.38 11 0 11 C0 7.37 0 3.74 0 0 Z " fill="#DF5453" transform="translate(237,322)"/>
<path d="M0 0 C1.485 0.99 1.485 0.99 3 2 C2.34 3.32 1.68 4.64 1 6 C2.65 6 4.3 6 6 6 C6 5.01 6 4.02 6 3 C6.66 3 7.32 3 8 3 C7.67 4.65 7.34 6.3 7 8 C4.69 8 2.38 8 0 8 C0 5.36 0 2.72 0 0 Z " fill="#DD4B4B" transform="translate(222,325)"/>
<path d="M0 0 C1.32 0.66 2.64 1.32 4 2 C1.36 3.98 -1.28 5.96 -4 8 C-4.66 7.01 -5.32 6.02 -6 5 C-5.34 4.34 -4.68 3.68 -4 3 C-3.34 3.33 -2.68 3.66 -2 4 C-2 3.34 -2 2.68 -2 2 C-1.34 2 -0.68 2 0 2 C0 1.34 0 0.68 0 0 Z " fill="#E75154" transform="translate(133,291)"/>
<path d="M0 0 C1.05767578 0.49113281 1.05767578 0.49113281 2.13671875 0.9921875 C5.23867167 2.08400722 7.54006053 2.20385396 10.8125 2.125 C11.78832031 2.10695313 12.76414062 2.08890625 13.76953125 2.0703125 C14.50558594 2.04710937 15.24164063 2.02390625 16 2 C15.67 2.66 15.34 3.32 15 4 C14.15695312 3.97679687 13.31390625 3.95359375 12.4453125 3.9296875 C11.34960938 3.91164063 10.25390625 3.89359375 9.125 3.875 C8.03445313 3.85179687 6.94390625 3.82859375 5.8203125 3.8046875 C2.8628949 3.69939466 2.8628949 3.69939466 1 6 C0.01 5.34 -0.98 4.68 -2 4 C-1.34 2.68 -0.68 1.36 0 0 Z " fill="#E65354" transform="translate(363,287)"/>
<path d="M0 0 C2.31 0.33 4.62 0.66 7 1 C7 2.65 7 4.3 7 6 C7.66 6 8.32 6 9 6 C9.33 7.98 9.66 9.96 10 12 C9.34 12 8.68 12 8 12 C7.63648437 11.20335937 7.63648437 11.20335937 7.265625 10.390625 C5.30587441 6.26007376 3.53371028 3.02889453 0 0 Z " fill="#DF5256" transform="translate(118,233)"/>
<path d="M0 0 C0 2.66666667 0 5.33333333 0 8 C-0.99 8.495 -0.99 8.495 -2 9 C-2.33 9.99 -2.66 10.98 -3 12 C-3.99 12.33 -4.98 12.66 -6 13 C-3.10933941 3.40546697 -3.10933941 3.40546697 0 0 Z " fill="#DC5050" transform="translate(348,251)"/>
<path d="M0 0 C1.32 0 2.64 0 4 0 C4.66 1.65 5.32 3.3 6 5 C7.65 3.68 9.3 2.36 11 1 C11.66 1.33 12.32 1.66 13 2 C11.06745228 4.0245738 9.36841312 5.42105792 7 7 C4.8125 6.625 4.8125 6.625 3 6 C3 4.35 3 2.7 3 1 C2.01 0.67 1.02 0.34 0 0 Z " fill="#DA5253" transform="translate(252,242)"/>
<path d="M0 0 C0.99 0.33 1.98 0.66 3 1 C2.125 6.875 2.125 6.875 1 8 C-0.66617115 8.04063832 -2.33388095 8.042721 -4 8 C-4 7.34 -4 6.68 -4 6 C-3.01 5.67 -2.02 5.34 -1 5 C-0.67 3.35 -0.34 1.7 0 0 Z " fill="#D34D4D" transform="translate(194,325)"/>
<path d="M0 0 C0.66 0 1.32 0 2 0 C2.268125 0.78375 2.53625 1.5675 2.8125 2.375 C3.84814432 5.28114923 3.84814432 5.28114923 7 7 C6.67 7.66 6.34 8.32 6 9 C3.525 8.01 3.525 8.01 1 7 C0.67 4.69 0.34 2.38 0 0 Z " fill="#D15455" transform="translate(153,325)"/>
<path d="M0 0 C0.66 0 1.32 0 2 0 C4.12132552 4.24265104 5.11647866 6.32385165 4.5625 11.125 C4.46066406 12.03507813 4.35882813 12.94515625 4.25390625 13.8828125 C4.17011719 14.58148438 4.08632812 15.28015625 4 16 C3.67 16 3.34 16 3 16 C2.01 10.72 1.02 5.44 0 0 Z " fill="#DE5252" transform="translate(159,224)"/>
<path d="M0 0 C-1.97420135 2.52259061 -2.96745642 2.9929808 -6.1875 3.6875 C-7.5796875 3.8421875 -7.5796875 3.8421875 -9 4 C-9.33 3.01 -9.66 2.02 -10 1 C-6.52674819 -0.1577506 -3.63932552 -0.06866652 0 0 Z " fill="#E45653" transform="translate(208,299)"/>
<path d="M0 0 C0 3 0 3 -2 6 C-4.31 5.67 -6.62 5.34 -9 5 C-6.08596738 3.05731159 -3.14191424 1.53604696 0 0 Z " fill="#E74C4E" transform="translate(162,164)"/>
<path d="M0 0 C1.5 1.0625 1.5 1.0625 3 3 C3.1875 6.6875 3.1875 6.6875 3 10 C2.01 10.495 2.01 10.495 1 11 C0.87625 9.865625 0.7525 8.73125 0.625 7.5625 C0.41875 6.386875 0.2125 5.21125 0 4 C-0.66 3.67 -1.32 3.34 -2 3 C-1.34 3 -0.68 3 0 3 C0 2.01 0 1.02 0 0 Z " fill="#F14644" transform="translate(339,266)"/>
<path d="M0 0 C0.66 0 1.32 0 2 0 C2.66 1.65 3.32 3.3 4 5 C2.02 5.33 0.04 5.66 -2 6 C-1.125 1.125 -1.125 1.125 0 0 Z " fill="#FA4D4B" transform="translate(176,206)"/>
<path d="M0 0 C1.5625 1.125 1.5625 1.125 3 3 C2.625 6.0625 2.625 6.0625 2 9 C2.33 9.66 2.66 10.32 3 11 C1.0625 10.625 1.0625 10.625 -1 10 C-1.33 9.34 -1.66 8.68 -2 8 C-1.34 8 -0.68 8 0 8 C0 5.36 0 2.72 0 0 Z " fill="#CB5354" transform="translate(177,322)"/>
<path d="M0 0 C1.98 0 3.96 0 6 0 C5.67 0.66 5.34 1.32 5 2 C4.01 2.33 3.02 2.66 2 3 C2 5.64 2 8.28 2 11 C1.34 11 0.68 11 0 11 C0 7.37 0 3.74 0 0 Z " fill="#DB5B60" transform="translate(292,322)"/>
<path d="M0 0 C0.66 0 1.32 0 2 0 C1.34 1.65 0.68 3.3 0 5 C-6.75 4.25 -6.75 4.25 -9 2 C-7.6078125 2.3403125 -7.6078125 2.3403125 -6.1875 2.6875 C-5.135625 2.790625 -4.08375 2.89375 -3 3 C-1.22809091 1.64555699 -1.22809091 1.64555699 0 0 Z " fill="#E75256" transform="translate(366,298)"/>
<path d="M0 0 C1.32 0.99 2.64 1.98 4 3 C3.34 4.32 2.68 5.64 2 7 C0.35 6.67 -1.3 6.34 -3 6 C-2.34 5.34 -1.68 4.68 -1 4 C-0.3574765 1.93125966 -0.3574765 1.93125966 0 0 Z " fill="#EB4F53" transform="translate(133,224)"/>
<path d="M0 0 C3 1 3 1 4.25 3.375 C5 6 5 6 4 9 C3.67 8.34 3.34 7.68 3 7 C2.01 6.67 1.02 6.34 0 6 C0 4.02 0 2.04 0 0 Z " fill="#F94E4F" transform="translate(129,201)"/>
<path d="M0 0 C-0.33 2.31 -0.66 4.62 -1 7 C-1.66 7 -2.32 7 -3 7 C-3.66 5.02 -4.32 3.04 -5 1 C-3 0 -3 0 0 0 Z " fill="#FA4C4A" transform="translate(237,156)"/>
<path d="M0 0 C0.66 0.33 1.32 0.66 2 1 C1.67 2.98 1.34 4.96 1 7 C0.67 6.34 0.34 5.68 0 5 C-0.66 5 -1.32 5 -2 5 C-2.33 5.99 -2.66 6.98 -3 8 C-3.36923077 3.44615385 -3.36923077 3.44615385 -1.5 1.1875 C-1.005 0.795625 -0.51 0.40375 0 0 Z " fill="#FB4D4A" transform="translate(172,145)"/>
<path d="M0 0 C0.66 0 1.32 0 2 0 C2 3.63 2 7.26 2 11 C1.34 11 0.68 11 0 11 C0 7.37 0 3.74 0 0 Z " fill="#DA6160" transform="translate(342,322)"/>
<path d="M0 0 C2.31 0 4.62 0 7 0 C7 0.66 7 1.32 7 2 C5.35 2 3.7 2 2 2 C1.67 3.98 1.34 5.96 1 8 C0.67 8 0.34 8 0 8 C0 5.36 0 2.72 0 0 Z " fill="#E45C60" transform="translate(308,322)"/>
<path d="M0 0 C0.66 0.33 1.32 0.66 2 1 C1.75 4.375 1.75 4.375 1 8 C-1.0625 9.4375 -1.0625 9.4375 -3 10 C-3.33 9.34 -3.66 8.68 -4 8 C-3.34 8 -2.68 8 -2 8 C-2 7.34 -2 6.68 -2 6 C-1.34 6 -0.68 6 0 6 C0 4.02 0 2.04 0 0 Z " fill="#D4474A" transform="translate(162,324)"/>
<path d="M0 0 C0 3.10551666 -0.5393715 4.35261084 -2 7 C-4.64 7 -7.28 7 -10 7 C-9.46375 6.773125 -8.9275 6.54625 -8.375 6.3125 C-5.21499137 4.56617944 -2.7323017 2.3597151 0 0 Z " fill="#DA4F56" transform="translate(203,283)"/>
<path d="M0 0 C-0.99 0.33 -1.98 0.66 -3 1 C-3.33 1.99 -3.66 2.98 -4 4 C-6.64 4 -9.28 4 -12 4 C-7.96889361 0.80291562 -5.14313574 -0.13900367 0 0 Z " fill="#E24F52" transform="translate(368,241)"/>
<path d="M0 0 C4.12751449 0.60698743 7.3321148 2.03810791 11 4 C7.18652885 5.27115705 5.64026964 4.54905091 2 3 C1.34 2.01 0.68 1.02 0 0 Z " fill="#D85252" transform="translate(200,199)"/>
<path d="M0 0 C0 0.99 0 1.98 0 3 C-4.455 3.495 -4.455 3.495 -9 4 C-5.73092573 0.73092573 -4.54139841 0 0 0 Z " fill="#DC5353" transform="translate(436,241)"/>
<path d="M0 0 C0.33 0 0.66 0 1 0 C1 1.65 1 3.3 1 5 C-2.69541586 5.95024979 -5.30458414 5.95024979 -9 5 C-9 4.67 -9 4.34 -9 4 C-6.36 4 -3.72 4 -1 4 C-0.67 2.68 -0.34 1.36 0 0 Z " fill="#DC5056" transform="translate(226,235)"/>
<path d="M0 0 C0.66 1.32 1.32 2.64 2 4 C-0.35438733 5.42944945 -1.48032433 6.08661261 -4.25 5.625 C-4.8275 5.41875 -5.405 5.2125 -6 5 C-4.02 3.35 -2.04 1.7 0 0 Z " fill="#CC5555" transform="translate(157,175)"/>
<path d="M0 0 C0.66 0 1.32 0 2 0 C1.67 1.65 1.34 3.3 1 5 C-0.98 5 -2.96 5 -5 5 C-5 4.34 -5 3.68 -5 3 C-4.34 3 -3.68 3 -3 3 C-2.67 2.34 -2.34 1.68 -2 1 C-1.67 1.33 -1.34 1.66 -1 2 C-0.67 1.34 -0.34 0.68 0 0 Z " fill="#F94E50" transform="translate(180,139)"/>
<path d="M0 0 C0.33 0.66 0.66 1.32 1 2 C4.02934491 2.65772428 4.02934491 2.65772428 7 3 C6.34 3.66 5.68 4.32 5 5 C2.38419521 4.6730244 0.35921863 4.17960932 -2 3 C-1 1 -1 1 0 0 Z " fill="#EB5353" transform="translate(378,298)"/>
<path d="M0 0 C0.99 0 1.98 0 3 0 C2.3125 2.4375 2.3125 2.4375 1 5 C-1.625 5.8125 -1.625 5.8125 -4 6 C-2.1875 3 -2.1875 3 0 0 Z " fill="#E25152" transform="translate(384,283)"/>
<path d="M0 0 C2.78637633 4.1795645 1.79562512 6.14668677 1 11 C0.34 10.34 -0.32 9.68 -1 9 C-0.9765625 6.8359375 -0.9765625 6.8359375 -0.625 4.375 C-0.51414063 3.55773437 -0.40328125 2.74046875 -0.2890625 1.8984375 C-0.19367188 1.27195313 -0.09828125 0.64546875 0 0 Z " fill="#EE5053" transform="translate(163,215)"/>
<path d="M0 0 C0.99 0.33 1.98 0.66 3 1 C3 1.99 3 2.98 3 4 C0.69 4 -1.62 4 -4 4 C-2.68 2.68 -1.36 1.36 0 0 Z " fill="#F84B47" transform="translate(152,219)"/>
<path d="M0 0 C0.66 0 1.32 0 2 0 C3.38938077 1.96147874 4.7260411 3.96166576 6 6 C5.34 6 4.68 6 4 6 C3.34 6.66 2.68 7.32 2 8 C1.34 5.36 0.68 2.72 0 0 Z " fill="#D05459" transform="translate(148,198)"/>
<path d="M0 0 C0.33 0.66 0.66 1.32 1 2 C0.06421005 4.35981813 -0.93347808 6.69631264 -2 9 C-2.33 9 -2.66 9 -3 9 C-3.33 6.69 -3.66 4.38 -4 2 C-2.68 1.34 -1.36 0.68 0 0 Z " fill="#E64B51" transform="translate(172,153)"/>
<path d="M0 0 C0.99 0 1.98 0 3 0 C3 3.63 3 7.26 3 11 C2.34 11 1.68 11 1 11 C1.03255208 9.01432292 1.06510417 7.02864583 1.09765625 5.04296875 C1.08263217 2.79694539 1.08263217 2.79694539 0 0 Z " fill="#DE5C60" transform="translate(377,322)"/>
<path d="M0 0 C0.33 0.66 0.66 1.32 1 2 C0.34 2 -0.32 2 -1 2 C-1.33 3.65 -1.66 5.3 -2 7 C-2.99 6.67 -3.98 6.34 -5 6 C-4.75 4.125 -4.75 4.125 -4 2 C-1.9375 0.75 -1.9375 0.75 0 0 Z " fill="#FA4445" transform="translate(196,240)"/>
<path d="M0 0 C0.66 0.33 1.32 0.66 2 1 C0.8125 3.5 0.8125 3.5 -1 6 C-3.6875 6.3125 -3.6875 6.3125 -6 6 C-4 4 -2 2 0 0 Z " fill="#CB5657" transform="translate(244,199)"/>
<path d="M0 0 C0.33 1.32 0.66 2.64 1 4 C-2 6 -2 6 -5 6 C-5 5.34 -5 4.68 -5 4 C-3.35 3.34 -1.7 2.68 0 2 C0 1.34 0 0.68 0 0 Z " fill="#CD5454" transform="translate(284,324)"/>
<path d="M0 0 C0.33 0 0.66 0 1 0 C1.20086443 3.71599191 1.1519437 4.77208445 -1 8 C-1.99 7.67 -2.98 7.34 -4 7 C-3.67 6.01 -3.34 5.02 -3 4 C-2.34 3.67 -1.68 3.34 -1 3 C-0.67 2.01 -0.34 1.02 0 0 Z " fill="#E04B4B" transform="translate(111,325)"/>
</svg>
