<?xml version="1.0" standalone="no"?>
<!DOCTYPE svg PUBLIC "-//W3C//DTD SVG 20010904//EN"
 "http://www.w3.org/TR/2001/REC-SVG-20010904/DTD/svg10.dtd">
<svg version="1.0" xmlns="http://www.w3.org/2000/svg"
 width="300.000000pt" height="300.000000pt" viewBox="0 0 300.000000 300.000000"
 preserveAspectRatio="xMidYMid meet">
<metadata>
Created by potrace 1.10, written by Peter Selinger 2001-2011
</metadata>
<g transform="translate(0.000000,300.000000) scale(0.100000,-0.100000)"
fill="#000000" stroke="none">
<path d="M1376 2574 c-416 -82 -726 -394 -811 -813 -26 -126 -17 -344 19 -464
51 -172 136 -317 257 -439 136 -137 332 -244 516 -284 94 -20 300 -22 393 -5
448 85 792 462 829 911 43 532 -308 996 -832 1095 -96 18 -277 18 -371 -1z
m381 -39 c197 -40 346 -118 486 -254 127 -122 201 -240 257 -407 57 -167 64
-370 20 -539 -48 -182 -173 -386 -306 -501 -111 -97 -273 -180 -424 -219 -79
-21 -261 -29 -358 -16 -205 26 -459 159 -595 310 -46 51 -113 154 -156 237
-69 137 -107 314 -97 464 3 52 7 102 9 110 2 8 9 42 16 75 59 284 276 547 555
675 177 80 395 104 593 65z"/>
<path d="M1300 2180 c-143 -18 -318 -157 -393 -310 -38 -79 -67 -192 -67 -265
0 -129 58 -291 139 -388 98 -117 235 -197 354 -205 40 -2 69 -2 66 2 -3 4 -39
16 -78 27 -76 20 -158 58 -201 91 -158 121 -240 281 -240 468 0 161 50 281
170 401 82 84 176 137 283 160 31 7 57 16 57 21 0 9 -9 9 -90 -2z"/>
<path d="M1555 2181 c-91 -15 -180 -64 -255 -140 -79 -80 -127 -150 -161 -236
-20 -53 -23 -76 -23 -205 0 -133 2 -151 26 -211 37 -94 71 -144 152 -225 72
-72 174 -132 256 -150 62 -14 294 -7 352 10 101 29 241 126 271 187 13 28 13
38 2 77 -23 75 -64 103 -97 65 -8 -10 -27 -40 -43 -68 -64 -111 -192 -208
-295 -222 l-45 -6 28 24 c15 14 27 32 27 40 0 9 -25 47 -56 85 -68 85 -76 99
-107 200 -33 110 -36 258 -7 363 26 93 49 137 118 228 30 40 52 76 49 79 -9
10 -62 -35 -100 -85 -179 -234 -163 -621 34 -823 l57 -58 -30 0 c-46 0 -91 26
-156 91 -213 213 -217 563 -9 785 68 73 92 88 156 99 l44 7 -24 18 c-13 10
-28 16 -34 13 -5 -4 -6 -2 -2 2 17 19 101 3 161 -30 90 -50 119 -77 181 -170
71 -107 85 -115 119 -74 59 69 49 104 -56 205 -114 109 -155 125 -343 129 -77
2 -162 0 -190 -4z m311 -32 c102 -31 131 -50 212 -132 l74 -74 -18 -52 c-10
-28 -21 -51 -24 -50 -3 0 -20 32 -38 70 -63 131 -177 220 -304 238 -122 17
-224 -16 -316 -103 -131 -123 -195 -322 -172 -528 25 -215 145 -394 305 -454
73 -28 192 -25 270 6 81 31 179 129 225 223 l33 69 23 -64 23 -63 -22 -23
c-63 -67 -180 -139 -274 -167 -297 -91 -634 112 -708 426 -69 295 118 603 416
683 83 22 214 20 295 -5z m-286 -80 c-80 -63 -132 -129 -175 -224 -28 -61 -30
-68 -46 -160 -19 -109 13 -297 62 -367 11 -14 19 -30 19 -35 0 -15 85 -112
139 -158 61 -52 57 -57 -15 -16 -240 138 -326 500 -185 778 38 76 116 161 172
190 50 25 66 21 29 -8z"/>
<path d="M1332 2136 c-34 -13 -81 -36 -103 -52 -81 -56 -161 -181 -195 -305
-24 -88 -24 -271 0 -359 50 -181 169 -322 306 -361 25 -7 51 -17 58 -22 7 -6
12 -6 12 0 0 11 -39 49 -49 47 -20 -5 -101 47 -151 96 -102 101 -160 252 -160
420 0 224 93 393 272 497 114 65 117 78 10 39z"/>
</g>
</svg>
